<mxfile host="app.diagrams.net" modified="2022-03-25T03:36:22.286Z" agent="5.0 (Windows NT 10.0; Win64; x64) AppleWebKit/537.36 (KHTML, like Gecko) Chrome/99.0.4844.74 Safari/537.36" etag="Q6LyWqocVl1Dj1zrlTGn" version="17.2.2" type="github" pages="2">
  <diagram id="C5RBs43oDa-KdzZeNtuy" name="certificate_rsa">
    <mxGraphModel dx="1422" dy="744" grid="1" gridSize="10" guides="1" tooltips="1" connect="1" arrows="1" fold="1" page="1" pageScale="1" pageWidth="827" pageHeight="1169" math="0" shadow="0">
      <root>
        <mxCell id="WIyWlLk6GJQsqaUBKTNV-0" />
        <mxCell id="WIyWlLk6GJQsqaUBKTNV-1" parent="WIyWlLk6GJQsqaUBKTNV-0" />
        <mxCell id="qlwuCZNBy6uetGNSBkJU-35" value="" style="rounded=1;whiteSpace=wrap;html=1;fillColor=#CCFFE6;" vertex="1" parent="WIyWlLk6GJQsqaUBKTNV-1">
          <mxGeometry x="20" y="410" width="320" height="250" as="geometry" />
        </mxCell>
        <mxCell id="qlwuCZNBy6uetGNSBkJU-25" value="" style="rounded=1;whiteSpace=wrap;html=1;fillColor=#CCFFE6;" vertex="1" parent="WIyWlLk6GJQsqaUBKTNV-1">
          <mxGeometry x="340" y="20" width="380" height="270" as="geometry" />
        </mxCell>
        <mxCell id="qlwuCZNBy6uetGNSBkJU-26" value="" style="rounded=1;whiteSpace=wrap;html=1;fillColor=#CCFFE6;" vertex="1" parent="WIyWlLk6GJQsqaUBKTNV-1">
          <mxGeometry x="700" y="410" width="320" height="250" as="geometry" />
        </mxCell>
        <mxCell id="qlwuCZNBy6uetGNSBkJU-31" style="edgeStyle=orthogonalEdgeStyle;rounded=0;orthogonalLoop=1;jettySize=auto;html=1;entryX=1;entryY=0.5;entryDx=0;entryDy=0;exitX=0.5;exitY=0;exitDx=0;exitDy=0;" edge="1" parent="WIyWlLk6GJQsqaUBKTNV-1" source="qlwuCZNBy6uetGNSBkJU-22" target="qlwuCZNBy6uetGNSBkJU-28">
          <mxGeometry relative="1" as="geometry" />
        </mxCell>
        <mxCell id="qlwuCZNBy6uetGNSBkJU-32" value="请求签发" style="edgeLabel;html=1;align=center;verticalAlign=middle;resizable=0;points=[];fontSize=22;" vertex="1" connectable="0" parent="qlwuCZNBy6uetGNSBkJU-31">
          <mxGeometry x="0.1677" relative="1" as="geometry">
            <mxPoint as="offset" />
          </mxGeometry>
        </mxCell>
        <mxCell id="qlwuCZNBy6uetGNSBkJU-22" value="公钥 pub" style="rounded=1;whiteSpace=wrap;html=1;fillColor=#FFCE9F;fontSize=24;" vertex="1" parent="WIyWlLk6GJQsqaUBKTNV-1">
          <mxGeometry x="870" y="480" width="120" height="60" as="geometry" />
        </mxCell>
        <mxCell id="qlwuCZNBy6uetGNSBkJU-23" value="私钥 priv" style="rounded=1;whiteSpace=wrap;html=1;fillColor=#FFCE9F;fontSize=24;" vertex="1" parent="WIyWlLk6GJQsqaUBKTNV-1">
          <mxGeometry x="870" y="590" width="120" height="60" as="geometry" />
        </mxCell>
        <mxCell id="qlwuCZNBy6uetGNSBkJU-27" value="Server 证书&amp;nbsp; server.cert" style="rounded=1;whiteSpace=wrap;html=1;fillColor=#FFCE9F;fontSize=24;" vertex="1" parent="WIyWlLk6GJQsqaUBKTNV-1">
          <mxGeometry x="720" y="495" width="140" height="90" as="geometry" />
        </mxCell>
        <mxCell id="qlwuCZNBy6uetGNSBkJU-30" style="edgeStyle=orthogonalEdgeStyle;rounded=0;orthogonalLoop=1;jettySize=auto;html=1;entryX=0;entryY=0.5;entryDx=0;entryDy=0;exitX=0.5;exitY=1;exitDx=0;exitDy=0;" edge="1" parent="WIyWlLk6GJQsqaUBKTNV-1" source="qlwuCZNBy6uetGNSBkJU-28" target="qlwuCZNBy6uetGNSBkJU-27">
          <mxGeometry relative="1" as="geometry" />
        </mxCell>
        <mxCell id="qlwuCZNBy6uetGNSBkJU-33" value="签发" style="edgeLabel;html=1;align=center;verticalAlign=middle;resizable=0;points=[];fontSize=22;" vertex="1" connectable="0" parent="qlwuCZNBy6uetGNSBkJU-30">
          <mxGeometry x="-0.2894" y="4" relative="1" as="geometry">
            <mxPoint as="offset" />
          </mxGeometry>
        </mxCell>
        <mxCell id="qlwuCZNBy6uetGNSBkJU-28" value="私钥 priv" style="rounded=1;whiteSpace=wrap;html=1;fillColor=#FFCE9F;fontSize=24;" vertex="1" parent="WIyWlLk6GJQsqaUBKTNV-1">
          <mxGeometry x="570" y="210" width="120" height="60" as="geometry" />
        </mxCell>
        <mxCell id="qlwuCZNBy6uetGNSBkJU-42" style="edgeStyle=orthogonalEdgeStyle;rounded=0;orthogonalLoop=1;jettySize=auto;html=1;exitX=0;exitY=0.5;exitDx=0;exitDy=0;entryX=0.5;entryY=0;entryDx=0;entryDy=0;" edge="1" parent="WIyWlLk6GJQsqaUBKTNV-1" source="qlwuCZNBy6uetGNSBkJU-29" target="qlwuCZNBy6uetGNSBkJU-34">
          <mxGeometry relative="1" as="geometry" />
        </mxCell>
        <mxCell id="qlwuCZNBy6uetGNSBkJU-43" value="自签" style="edgeLabel;html=1;align=center;verticalAlign=middle;resizable=0;points=[];fontSize=18;" vertex="1" connectable="0" parent="qlwuCZNBy6uetGNSBkJU-42">
          <mxGeometry x="-0.0727" y="1" relative="1" as="geometry">
            <mxPoint as="offset" />
          </mxGeometry>
        </mxCell>
        <mxCell id="qlwuCZNBy6uetGNSBkJU-29" value="公钥 pub" style="rounded=1;whiteSpace=wrap;html=1;fillColor=#FFCE9F;fontSize=24;" vertex="1" parent="WIyWlLk6GJQsqaUBKTNV-1">
          <mxGeometry x="570" y="80" width="120" height="60" as="geometry" />
        </mxCell>
        <mxCell id="qlwuCZNBy6uetGNSBkJU-44" style="edgeStyle=orthogonalEdgeStyle;rounded=0;orthogonalLoop=1;jettySize=auto;html=1;exitX=0;exitY=0.5;exitDx=0;exitDy=0;" edge="1" parent="WIyWlLk6GJQsqaUBKTNV-1" source="qlwuCZNBy6uetGNSBkJU-34" target="qlwuCZNBy6uetGNSBkJU-39">
          <mxGeometry relative="1" as="geometry" />
        </mxCell>
        <mxCell id="qlwuCZNBy6uetGNSBkJU-45" value="操作系统内置" style="edgeLabel;html=1;align=center;verticalAlign=middle;resizable=0;points=[];fontSize=22;" vertex="1" connectable="0" parent="qlwuCZNBy6uetGNSBkJU-44">
          <mxGeometry x="0.2793" y="2" relative="1" as="geometry">
            <mxPoint as="offset" />
          </mxGeometry>
        </mxCell>
        <mxCell id="qlwuCZNBy6uetGNSBkJU-34" value="权威机构根证书&lt;br style=&quot;font-size: 24px;&quot;&gt;Root CA" style="rounded=1;whiteSpace=wrap;html=1;fillColor=#FFCE9F;fontSize=24;" vertex="1" parent="WIyWlLk6GJQsqaUBKTNV-1">
          <mxGeometry x="360" y="140" width="180" height="90" as="geometry" />
        </mxCell>
        <mxCell id="qlwuCZNBy6uetGNSBkJU-39" value="权威机构根证书&lt;br style=&quot;font-size: 24px;&quot;&gt;Root CA" style="rounded=1;whiteSpace=wrap;html=1;fillColor=#FFCE9F;fontSize=24;" vertex="1" parent="WIyWlLk6GJQsqaUBKTNV-1">
          <mxGeometry x="100" y="505" width="180" height="105" as="geometry" />
        </mxCell>
        <mxCell id="qlwuCZNBy6uetGNSBkJU-46" value="客户端" style="text;html=1;strokeColor=none;fillColor=none;align=center;verticalAlign=middle;whiteSpace=wrap;rounded=0;fontSize=22;" vertex="1" parent="WIyWlLk6GJQsqaUBKTNV-1">
          <mxGeometry x="150" y="430" width="80" height="30" as="geometry" />
        </mxCell>
        <mxCell id="qlwuCZNBy6uetGNSBkJU-47" value="服务器" style="text;html=1;strokeColor=none;fillColor=none;align=center;verticalAlign=middle;whiteSpace=wrap;rounded=0;fontSize=22;" vertex="1" parent="WIyWlLk6GJQsqaUBKTNV-1">
          <mxGeometry x="840" y="430" width="70" height="30" as="geometry" />
        </mxCell>
        <mxCell id="qlwuCZNBy6uetGNSBkJU-48" value="权威机构" style="text;html=1;strokeColor=none;fillColor=none;align=center;verticalAlign=middle;whiteSpace=wrap;rounded=0;fontSize=22;" vertex="1" parent="WIyWlLk6GJQsqaUBKTNV-1">
          <mxGeometry x="500" y="30" width="90" height="40" as="geometry" />
        </mxCell>
      </root>
    </mxGraphModel>
  </diagram>
  <diagram id="Via19vXXmuFfVRhY2hhR" name="Page-2">
    <mxGraphModel dx="2249" dy="744" grid="1" gridSize="10" guides="1" tooltips="1" connect="1" arrows="1" fold="1" page="1" pageScale="1" pageWidth="827" pageHeight="1169" math="0" shadow="0">
      <root>
        <mxCell id="0" />
        <mxCell id="1" parent="0" />
        <mxCell id="Gx2G5WAXeSdiOhbwBksc-3" style="edgeStyle=orthogonalEdgeStyle;rounded=0;orthogonalLoop=1;jettySize=auto;html=1;exitX=1;exitY=0.5;exitDx=0;exitDy=0;fontSize=22;" edge="1" parent="1" source="Gx2G5WAXeSdiOhbwBksc-1" target="Gx2G5WAXeSdiOhbwBksc-2">
          <mxGeometry relative="1" as="geometry" />
        </mxCell>
        <mxCell id="Gx2G5WAXeSdiOhbwBksc-1" value="Client" style="rounded=1;whiteSpace=wrap;html=1;fontSize=22;fillColor=#FFCE9F;" vertex="1" parent="1">
          <mxGeometry x="60" y="120" width="120" height="60" as="geometry" />
        </mxCell>
        <mxCell id="Gx2G5WAXeSdiOhbwBksc-2" value="Server" style="rounded=1;whiteSpace=wrap;html=1;fontSize=22;fillColor=#FFCE9F;" vertex="1" parent="1">
          <mxGeometry x="540" y="120" width="120" height="60" as="geometry" />
        </mxCell>
        <mxCell id="Gx2G5WAXeSdiOhbwBksc-4" value="密码是12345" style="text;html=1;align=center;verticalAlign=middle;resizable=0;points=[];autosize=1;strokeColor=none;fillColor=none;fontSize=22;" vertex="1" parent="1">
          <mxGeometry x="300" y="120" width="140" height="30" as="geometry" />
        </mxCell>
        <mxCell id="Gx2G5WAXeSdiOhbwBksc-5" value="内容是aabcd" style="text;html=1;align=center;verticalAlign=middle;resizable=0;points=[];autosize=1;strokeColor=none;fillColor=none;fontSize=22;" vertex="1" parent="1">
          <mxGeometry x="300" y="160" width="140" height="30" as="geometry" />
        </mxCell>
        <mxCell id="Gx2G5WAXeSdiOhbwBksc-6" style="edgeStyle=orthogonalEdgeStyle;rounded=0;orthogonalLoop=1;jettySize=auto;html=1;exitX=0.25;exitY=0;exitDx=0;exitDy=0;entryX=1;entryY=0.25;entryDx=0;entryDy=0;fontSize=22;" edge="1" parent="1" source="Gx2G5WAXeSdiOhbwBksc-1" target="Gx2G5WAXeSdiOhbwBksc-1">
          <mxGeometry relative="1" as="geometry" />
        </mxCell>
        <mxCell id="Gx2G5WAXeSdiOhbwBksc-7" value="encrypt(12345, xx) = aabcd" style="text;html=1;strokeColor=none;fillColor=none;align=center;verticalAlign=middle;whiteSpace=wrap;rounded=0;fontSize=22;" vertex="1" parent="1">
          <mxGeometry x="10" y="60" width="320" height="30" as="geometry" />
        </mxCell>
        <mxCell id="Gx2G5WAXeSdiOhbwBksc-8" style="edgeStyle=orthogonalEdgeStyle;rounded=0;orthogonalLoop=1;jettySize=auto;html=1;entryX=1;entryY=0.5;entryDx=0;entryDy=0;fontSize=22;" edge="1" parent="1" source="Gx2G5WAXeSdiOhbwBksc-2" target="Gx2G5WAXeSdiOhbwBksc-2">
          <mxGeometry relative="1" as="geometry" />
        </mxCell>
        <mxCell id="Gx2G5WAXeSdiOhbwBksc-9" value="decrypt(12345, aabcd) = xx" style="text;html=1;strokeColor=none;fillColor=none;align=center;verticalAlign=middle;whiteSpace=wrap;rounded=0;fontSize=22;" vertex="1" parent="1">
          <mxGeometry x="480" y="60" width="320" height="30" as="geometry" />
        </mxCell>
        <mxCell id="Gx2G5WAXeSdiOhbwBksc-20" style="edgeStyle=orthogonalEdgeStyle;rounded=0;orthogonalLoop=1;jettySize=auto;html=1;exitX=1;exitY=0.25;exitDx=0;exitDy=0;entryX=0;entryY=0.25;entryDx=0;entryDy=0;fontSize=22;" edge="1" parent="1" source="Gx2G5WAXeSdiOhbwBksc-11" target="Gx2G5WAXeSdiOhbwBksc-12">
          <mxGeometry relative="1" as="geometry" />
        </mxCell>
        <mxCell id="Gx2G5WAXeSdiOhbwBksc-24" style="edgeStyle=orthogonalEdgeStyle;rounded=0;orthogonalLoop=1;jettySize=auto;html=1;exitX=1;exitY=0.75;exitDx=0;exitDy=0;entryX=-0.008;entryY=0.894;entryDx=0;entryDy=0;fontSize=22;entryPerimeter=0;" edge="1" parent="1" source="Gx2G5WAXeSdiOhbwBksc-11" target="Gx2G5WAXeSdiOhbwBksc-12">
          <mxGeometry relative="1" as="geometry">
            <Array as="points">
              <mxPoint x="160" y="481" />
            </Array>
          </mxGeometry>
        </mxCell>
        <mxCell id="Gx2G5WAXeSdiOhbwBksc-11" value="Client" style="rounded=1;whiteSpace=wrap;html=1;fontSize=22;fillColor=#FFCE9F;" vertex="1" parent="1">
          <mxGeometry x="50" y="320" width="110" height="180" as="geometry" />
        </mxCell>
        <mxCell id="Gx2G5WAXeSdiOhbwBksc-22" style="edgeStyle=orthogonalEdgeStyle;rounded=0;orthogonalLoop=1;jettySize=auto;html=1;exitX=0;exitY=0.5;exitDx=0;exitDy=0;entryX=1;entryY=0.5;entryDx=0;entryDy=0;fontSize=22;" edge="1" parent="1" source="Gx2G5WAXeSdiOhbwBksc-12" target="Gx2G5WAXeSdiOhbwBksc-11">
          <mxGeometry relative="1" as="geometry" />
        </mxCell>
        <mxCell id="Gx2G5WAXeSdiOhbwBksc-12" value="Server" style="rounded=1;whiteSpace=wrap;html=1;fontSize=22;fillColor=#FFCE9F;" vertex="1" parent="1">
          <mxGeometry x="530" y="320" width="130" height="180" as="geometry" />
        </mxCell>
        <mxCell id="Gx2G5WAXeSdiOhbwBksc-21" value="登录" style="text;html=1;align=center;verticalAlign=middle;resizable=0;points=[];autosize=1;strokeColor=none;fillColor=none;fontSize=22;" vertex="1" parent="1">
          <mxGeometry x="300" y="330" width="60" height="30" as="geometry" />
        </mxCell>
        <mxCell id="Gx2G5WAXeSdiOhbwBksc-23" value="我的公钥是 s_pub" style="text;html=1;align=center;verticalAlign=middle;resizable=0;points=[];autosize=1;strokeColor=none;fillColor=none;fontSize=22;" vertex="1" parent="1">
          <mxGeometry x="250" y="380" width="190" height="30" as="geometry" />
        </mxCell>
        <mxCell id="Gx2G5WAXeSdiOhbwBksc-25" value="内容是 bcdef" style="text;html=1;align=center;verticalAlign=middle;resizable=0;points=[];autosize=1;strokeColor=none;fillColor=none;fontSize=22;" vertex="1" parent="1">
          <mxGeometry x="270" y="440" width="140" height="30" as="geometry" />
        </mxCell>
        <mxCell id="Gx2G5WAXeSdiOhbwBksc-26" style="edgeStyle=orthogonalEdgeStyle;rounded=0;orthogonalLoop=1;jettySize=auto;html=1;exitX=0.25;exitY=1;exitDx=0;exitDy=0;entryX=0.909;entryY=1;entryDx=0;entryDy=0;entryPerimeter=0;fontSize=22;" edge="1" parent="1" source="Gx2G5WAXeSdiOhbwBksc-11" target="Gx2G5WAXeSdiOhbwBksc-11">
          <mxGeometry relative="1" as="geometry" />
        </mxCell>
        <mxCell id="Gx2G5WAXeSdiOhbwBksc-27" value="rsa_encrypt(s_pub, xx) = bcdef" style="text;html=1;strokeColor=none;fillColor=none;align=center;verticalAlign=middle;whiteSpace=wrap;rounded=0;fontSize=22;" vertex="1" parent="1">
          <mxGeometry x="-30" y="530" width="320" height="30" as="geometry" />
        </mxCell>
        <mxCell id="Gx2G5WAXeSdiOhbwBksc-28" style="edgeStyle=orthogonalEdgeStyle;rounded=0;orthogonalLoop=1;jettySize=auto;html=1;exitX=0.75;exitY=1;exitDx=0;exitDy=0;entryX=0.185;entryY=1.011;entryDx=0;entryDy=0;entryPerimeter=0;fontSize=22;" edge="1" parent="1" source="Gx2G5WAXeSdiOhbwBksc-12" target="Gx2G5WAXeSdiOhbwBksc-12">
          <mxGeometry relative="1" as="geometry" />
        </mxCell>
        <mxCell id="Gx2G5WAXeSdiOhbwBksc-29" value="rsa_decrypt(s_priv, bcdef) = xx" style="text;html=1;strokeColor=none;fillColor=none;align=center;verticalAlign=middle;whiteSpace=wrap;rounded=0;fontSize=22;" vertex="1" parent="1">
          <mxGeometry x="440" y="540" width="320" height="30" as="geometry" />
        </mxCell>
        <mxCell id="Gx2G5WAXeSdiOhbwBksc-30" value="s_pub" style="rounded=0;whiteSpace=wrap;html=1;fontSize=22;fillColor=#FFCE9F;" vertex="1" parent="1">
          <mxGeometry x="555" y="350" width="80" height="35" as="geometry" />
        </mxCell>
        <mxCell id="Gx2G5WAXeSdiOhbwBksc-31" value="s_priv" style="rounded=0;whiteSpace=wrap;html=1;fontSize=22;fillColor=#FFCE9F;" vertex="1" parent="1">
          <mxGeometry x="560" y="450" width="80" height="35" as="geometry" />
        </mxCell>
      </root>
    </mxGraphModel>
  </diagram>
</mxfile>
